<?xml version="1.0" standalone="no"?>
<!DOCTYPE svg PUBLIC "-//W3C//DTD SVG 20010904//EN"
 "http://www.w3.org/TR/2001/REC-SVG-20010904/DTD/svg10.dtd">
<svg version="1.0" xmlns="http://www.w3.org/2000/svg"
 width="260.000000pt" height="260.000000pt" viewBox="0 0 260.000000 260.000000"
 preserveAspectRatio="xMidYMid meet">
<metadata>
Created by potrace 1.11, written by Peter Selinger 2001-2013
</metadata>
<g transform="translate(0.000000,260.000000) scale(0.100000,-0.100000)"
fill="#000000" stroke="none">
<path d="M1610 2040 c-118 -4 -309 -14 -425 -23 -115 -9 -383 -21 -595 -27
-371 -11 -386 -12 -407 -32 -23 -21 -23 -23 -23 -318 l0 -297 24 -22 24 -23
274 6 c150 4 311 9 357 12 l84 6 -6 -43 c-3 -24 -12 -108 -18 -186 l-13 -142
-70 -5 c-39 -3 -188 -10 -331 -16 -243 -10 -261 -13 -282 -32 -31 -29 -30 -78
2 -108 l24 -23 373 17 373 16 28 28 c31 31 32 40 69 454 l12 138 -25 26 -24
26 -270 -6 c-148 -4 -312 -9 -363 -12 l-92 -6 0 190 0 190 133 6 c72 3 276 10
452 17 176 6 353 13 393 16 l72 5 0 -889 0 -890 23 -21 c31 -29 77 -29 105 1
21 23 22 30 24 386 l3 364 155 39 c85 21 182 44 215 52 33 8 123 30 200 50 77
20 147 36 155 36 9 0 30 15 48 33 l31 32 17 463 16 463 -28 30 -28 29 -235 -2
c-130 -1 -333 -5 -451 -8z m584 -227 c-2 -49 -9 -216 -14 -372 -6 -156 -12
-287 -15 -289 -3 -3 -151 -42 -331 -87 -303 -76 -325 -80 -320 -61 3 12 6 216
6 453 l0 433 183 3 c100 1 253 3 339 5 l157 2 -5 -87z"/>
</g>
</svg>
